<svg xmlns="http://www.w3.org/2000/svg" xmlns:xlink="http://www.w3.org/1999/xlink" contentStyleType="text/css" data-diagram-type="DESCRIPTION" height="1362px" preserveAspectRatio="none" style="width:1929px;height:1362px;background:#FFFFFF;" version="1.1" viewBox="0 0 1929 1362" width="1929px" zoomAndPan="magnify"><?plantuml 1.2026.4?><defs/><g><g class="title" data-source-line="1"><text fill="#000000" font-family="Helvetica" font-size="14" font-weight="700" lengthAdjust="spacing" textLength="344.5449" x="788.7671" y="20.7803">Lando &#8212; Container (inside the Azure Function App)</text></g><!--cluster Azure Function App (Lando.FunctionApp)--><g class="cluster" data-qualified-name="Azure Function App .Lando.FunctionApp." data-source-line="25" id="ent0005"><path d="M10,178 L286.3936,178 A6,6 0 0 1 290.3936,182 L297.3936,198 L1564,198 A4,4 0 0 1 1568,202 L1568,1235 A4,4 0 0 1 1564,1239 L10,1239 A4,4 0 0 1 6,1235 L6,182 A4,4 0 0 1 10,178" fill="none" style="stroke:#000000;stroke-width:1.5;"/><line style="stroke:#000000;stroke-width:1.5;" x1="6" x2="297.3936" y1="198" y2="198"/><text fill="#000000" font-family="Helvetica" font-size="14" font-weight="700" lengthAdjust="spacing" textLength="278.3936" x="10" y="190.7803">Azure Function App (Lando.FunctionApp)</text></g><!--cluster Lando.Alexa.SmartHome--><g class="cluster" data-qualified-name="Azure Function App .Lando.FunctionApp..Lando.Alexa.SmartHome" data-source-line="30" id="ent0009"><path d="M228,513 L391.71,513 A6,6 0 0 1 395.71,517 L402.71,533 L991,533 A4,4 0 0 1 995,537 L995,1091 A4,4 0 0 1 991,1095 L228,1095 A4,4 0 0 1 224,1091 L224,517 A4,4 0 0 1 228,513" fill="none" style="stroke:#000000;stroke-width:1.5;"/><line style="stroke:#000000;stroke-width:1.5;" x1="224" x2="402.71" y1="533" y2="533"/><text fill="#000000" font-family="Helvetica" font-size="14" font-weight="700" lengthAdjust="spacing" textLength="165.71" x="228" y="525.7803">Lando.Alexa.SmartHome</text></g><!--cluster Lando.HomeAssistant.Core--><g class="cluster" data-qualified-name="Azure Function App .Lando.FunctionApp..Lando.HomeAssistant.Core" data-source-line="40" id="ent0017"><path d="M1023,847 L1204.5859,847 A6,6 0 0 1 1208.5859,851 L1215.5859,867 L1540,867 A4,4 0 0 1 1544,871 L1544,954 A4,4 0 0 1 1540,958 L1023,958 A4,4 0 0 1 1019,954 L1019,851 A4,4 0 0 1 1023,847" fill="none" style="stroke:#000000;stroke-width:1.5;"/><line style="stroke:#000000;stroke-width:1.5;" x1="1019" x2="1215.5859" y1="867" y2="867"/><text fill="#000000" font-family="Helvetica" font-size="14" font-weight="700" lengthAdjust="spacing" textLength="183.5859" x="1023" y="859.7803">Lando.HomeAssistant.Core</text></g><!--entity trigger--><g class="entity" data-qualified-name="Azure Function App .Lando.FunctionApp..trigger" data-source-line="26" id="ent0006"><rect fill="#DCEEF8" height="62" rx="4" ry="4" style="stroke:#2E86AB;stroke-width:0.5;" width="233.1992" x="100.4" y="211"/><text fill="#222222" font-family="Helvetica" font-size="14" font-style="italic" lengthAdjust="spacing" textLength="46.7168" x="193.6412" y="231.7803">&#171;edge&#187;</text><text fill="#222222" font-family="Helvetica" font-size="14" lengthAdjust="spacing" textLength="213.1992" x="110.4" y="245.7803">Functions/Alexa/AlexaSmartHome</text><text fill="#222222" font-family="Helvetica" font-size="14" lengthAdjust="spacing" textLength="89.4482" x="110.4" y="259.7803">(HTTP trigger)</text></g><!--entity base--><g class="entity" data-qualified-name="Azure Function App .Lando.FunctionApp..base" data-source-line="27" id="ent0007"><rect fill="#DCEEF8" height="118" rx="4" ry="4" style="stroke:#2E86AB;stroke-width:0.5;" width="226.1855" x="103.91" y="334"/><text fill="#222222" font-family="Helvetica" font-size="14" font-style="italic" lengthAdjust="spacing" textLength="46.7168" x="193.6444" y="354.7803">&#171;edge&#187;</text><text fill="#222222" font-family="Helvetica" font-size="14" lengthAdjust="spacing" textLength="181.3164" x="113.91" y="368.7803">FunctionBase&lt;TReq,TResp&gt;</text><text fill="#222222" font-family="Helvetica" font-size="14" lengthAdjust="spacing" textLength="87.9375" x="113.91" y="382.7803">&#8212; buffer body</text><text fill="#222222" font-family="Helvetica" font-size="14" lengthAdjust="spacing" textLength="115.165" x="113.91" y="396.7803">&#8212; invoke validator</text><text fill="#222222" font-family="Helvetica" font-size="14" lengthAdjust="spacing" textLength="84.8135" x="113.91" y="410.7803">&#8212; deserialize</text><text fill="#222222" font-family="Helvetica" font-size="14" lengthAdjust="spacing" textLength="108.9512" x="113.91" y="424.7803">&#8212; invoke handler</text><text fill="#222222" font-family="Helvetica" font-size="14" lengthAdjust="spacing" textLength="206.1855" x="113.91" y="438.7803">&#8212; serialize (redact SecureString)</text></g><!--entity hmac--><g class="entity" data-qualified-name="Azure Function App .Lando.FunctionApp..hmac" data-source-line="28" id="ent0008"><rect fill="#E8F0E0" height="76" rx="4" ry="4" style="stroke:#5B8C3E;stroke-width:0.5;" width="185.6279" x="22.19" y="546"/><text fill="#222222" font-family="Helvetica" font-size="14" font-style="italic" lengthAdjust="spacing" textLength="42.8066" x="93.6006" y="566.7803">&#171;core&#187;</text><text fill="#222222" font-family="Helvetica" font-size="14" lengthAdjust="spacing" textLength="140.834" x="32.19" y="580.7803">HmacSignatureVerifier</text><text fill="#222222" font-family="Helvetica" font-size="14" lengthAdjust="spacing" textLength="120.6133" x="32.19" y="594.7803">(IRequestValidator)</text><text fill="#222222" font-family="Helvetica" font-size="14" lengthAdjust="spacing" textLength="165.6279" x="32.19" y="608.7803">constant-time, &#177;5min skew</text></g><!--entity ts--><g class="entity" data-qualified-name="Azure Function App .Lando.FunctionApp..ts" data-source-line="45" id="ent0020"><rect fill="#F4E4D4" height="62" rx="4" ry="4" style="stroke:#B07A3D;stroke-width:0.5;" width="219.2061" x="160.4" y="1161"/><text fill="#222222" font-family="Helvetica" font-size="14" font-style="italic" lengthAdjust="spacing" textLength="42.8066" x="248.5997" y="1181.7803">&#171;infra&#187;</text><text fill="#222222" font-family="Helvetica" font-size="14" lengthAdjust="spacing" textLength="72.3721" x="170.4" y="1195.7803">TokenStore</text><text fill="#222222" font-family="Helvetica" font-size="14" lengthAdjust="spacing" textLength="199.2061" x="170.4" y="1209.7803">(Key Vault-backed ITokenStore)</text></g><!--entity smh--><g class="entity" data-qualified-name="Azure Function App .Lando.FunctionApp..Lando.Alexa.SmartHome.smh" data-source-line="31" id="ent0010"><rect fill="#E8F0E0" height="76" rx="4" ry="4" style="stroke:#5B8C3E;stroke-width:0.5;" width="144.9268" x="258.54" y="546"/><text fill="#222222" font-family="Helvetica" font-size="14" font-style="italic" lengthAdjust="spacing" textLength="42.8066" x="309.6001" y="566.7803">&#171;core&#187;</text><text fill="#222222" font-family="Helvetica" font-size="14" lengthAdjust="spacing" textLength="123.71" x="268.54" y="580.7803">SmartHomeHandler</text><text fill="#222222" font-family="Helvetica" font-size="14" lengthAdjust="spacing" textLength="114.3857" x="268.54" y="594.7803">(IRequestHandler)</text><text fill="#222222" font-family="Helvetica" font-size="14" lengthAdjust="spacing" textLength="124.9268" x="268.54" y="608.7803">envelope + dispatch</text></g><!--entity dh--><g class="entity" data-qualified-name="Azure Function App .Lando.FunctionApp..Lando.Alexa.SmartHome.dh" data-source-line="32" id="ent0011"><rect fill="#E8F0E0" height="76" rx="4" ry="4" style="stroke:#5B8C3E;stroke-width:0.5;" width="216.4854" x="239.76" y="697"/><text fill="#222222" font-family="Helvetica" font-size="14" font-style="italic" lengthAdjust="spacing" textLength="42.8066" x="326.5994" y="717.7803">&#171;core&#187;</text><text fill="#222222" font-family="Helvetica" font-size="14" lengthAdjust="spacing" textLength="123.7236" x="249.76" y="731.7803">DirectiveHandler&lt;,&gt;</text><text fill="#222222" font-family="Helvetica" font-size="14" lengthAdjust="spacing" textLength="196.4854" x="249.76" y="745.7803">base + per-directive subclasses</text><text fill="#222222" font-family="Helvetica" font-size="14" lengthAdjust="spacing" textLength="150.1855" x="249.76" y="759.7803">[Chain of Responsibility]</text></g><!--entity pt--><g class="entity" data-qualified-name="Azure Function App .Lando.FunctionApp..Lando.Alexa.SmartHome.pt" data-source-line="33" id="ent0012"><rect fill="#E8F0E0" height="62" rx="4" ry="4" style="stroke:#5B8C3E;stroke-width:0.5;" width="213.7646" x="255.12" y="880"/><text fill="#222222" font-family="Helvetica" font-size="14" font-style="italic" lengthAdjust="spacing" textLength="42.8066" x="340.599" y="900.7803">&#171;core&#187;</text><text fill="#222222" font-family="Helvetica" font-size="14" lengthAdjust="spacing" textLength="193.7646" x="265.12" y="914.7803">IPayloadTransform&lt;TPayload&gt;</text><text fill="#222222" font-family="Helvetica" font-size="14" lengthAdjust="spacing" textLength="143.9512" x="265.12" y="928.7803">[Strategy, per directive]</text></g><!--entity et--><g class="entity" data-qualified-name="Azure Function App .Lando.FunctionApp..Lando.Alexa.SmartHome.et" data-source-line="34" id="ent0013"><rect fill="#E8F0E0" height="76" rx="4" ry="4" style="stroke:#5B8C3E;stroke-width:0.5;" width="261.6162" x="504.19" y="873"/><text fill="#222222" font-family="Helvetica" font-size="14" font-style="italic" lengthAdjust="spacing" textLength="42.8066" x="613.5948" y="893.7803">&#171;core&#187;</text><text fill="#222222" font-family="Helvetica" font-size="14" lengthAdjust="spacing" textLength="127.5928" x="514.19" y="907.7803">IEntityTransform&lt;T&gt;</text><text fill="#222222" font-family="Helvetica" font-size="14" lengthAdjust="spacing" textLength="161.0752" x="514.19" y="921.7803">[Strategy, per HA domain]</text><text fill="#222222" font-family="Helvetica" font-size="14" lengthAdjust="spacing" textLength="241.6162" x="514.19" y="935.7803">DiscoveryEndpoint + ContextProperty[]</text></g><!--entity crs--><g class="entity" data-qualified-name="Azure Function App .Lando.FunctionApp..Lando.Alexa.SmartHome.crs" data-source-line="35" id="ent0014"><rect fill="#E8F0E0" height="76" rx="4" ry="4" style="stroke:#5B8C3E;stroke-width:0.5;" width="157.7441" x="775.13" y="697"/><text fill="#222222" font-family="Helvetica" font-size="14" font-style="italic" lengthAdjust="spacing" textLength="42.8066" x="832.5988" y="717.7803">&#171;core&#187;</text><text fill="#222222" font-family="Helvetica" font-size="14" lengthAdjust="spacing" textLength="137.7441" x="785.13" y="731.7803">ChangeReportService</text><text fill="#222222" font-family="Helvetica" font-size="14" lengthAdjust="spacing" textLength="104.2549" x="785.13" y="745.7803">(IHostedService)</text><text fill="#222222" font-family="Helvetica" font-size="14" lengthAdjust="spacing" textLength="125.6514" x="785.13" y="759.7803">WS subscriber + diff</text></g><!--entity egc--><g class="entity" data-qualified-name="Azure Function App .Lando.FunctionApp..Lando.Alexa.SmartHome.egc" data-source-line="36" id="ent0015"><rect fill="#E8F0E0" height="48" rx="4" ry="4" style="stroke:#5B8C3E;stroke-width:0.5;" width="146.8408" x="800.58" y="887"/><text fill="#222222" font-family="Helvetica" font-size="14" font-style="italic" lengthAdjust="spacing" textLength="42.8066" x="852.5971" y="907.7803">&#171;core&#187;</text><text fill="#222222" font-family="Helvetica" font-size="14" lengthAdjust="spacing" textLength="126.8408" x="810.58" y="921.7803">EventGatewayClient</text></g><!--entity lwa--><g class="entity" data-qualified-name="Azure Function App .Lando.FunctionApp..Lando.Alexa.SmartHome.lwa" data-source-line="37" id="ent0016"><rect fill="#E8F0E0" height="48" rx="4" ry="4" style="stroke:#5B8C3E;stroke-width:0.5;" width="120.3857" x="406.81" y="1031"/><text fill="#222222" font-family="Helvetica" font-size="14" font-style="italic" lengthAdjust="spacing" textLength="42.8066" x="445.5996" y="1051.7803">&#171;core&#187;</text><text fill="#222222" font-family="Helvetica" font-size="14" lengthAdjust="spacing" textLength="100.3857" x="416.81" y="1065.7803">LwaTokenClient</text></g><!--entity hac--><g class="entity" data-qualified-name="Azure Function App .Lando.FunctionApp..Lando.HomeAssistant.Core.hac" data-source-line="41" id="ent0018"><rect fill="#E8F0E0" height="62" rx="4" ry="4" style="stroke:#5B8C3E;stroke-width:0.5;" width="235.4824" x="1035.26" y="880"/><text fill="#222222" font-family="Helvetica" font-size="14" font-style="italic" lengthAdjust="spacing" textLength="42.8066" x="1131.5979" y="900.7803">&#171;core&#187;</text><text fill="#222222" font-family="Helvetica" font-size="14" lengthAdjust="spacing" textLength="129.9375" x="1045.26" y="914.7803">HomeAssistantClient</text><text fill="#222222" font-family="Helvetica" font-size="14" lengthAdjust="spacing" textLength="215.4824" x="1045.26" y="928.7803">(REST: GET state / POST service)</text></g><!--entity haws--><g class="entity" data-qualified-name="Azure Function App .Lando.FunctionApp..Lando.HomeAssistant.Core.haws" data-source-line="42" id="ent0019"><rect fill="#E8F0E0" height="62" rx="4" ry="4" style="stroke:#5B8C3E;stroke-width:0.5;" width="221.5234" x="1306.24" y="880"/><text fill="#222222" font-family="Helvetica" font-size="14" font-style="italic" lengthAdjust="spacing" textLength="42.8066" x="1395.5984" y="900.7803">&#171;core&#187;</text><text fill="#222222" font-family="Helvetica" font-size="14" lengthAdjust="spacing" textLength="201.5234" x="1316.24" y="914.7803">HomeAssistantWebSocketClient</text><text fill="#222222" font-family="Helvetica" font-size="14" lengthAdjust="spacing" textLength="195.3164" x="1316.24" y="928.7803">(WS: subscribe state_changed)</text></g><!--entity lambda--><g class="entity" data-qualified-name="lambda" data-source-line="20" id="ent0001"><rect fill="#EEEEEE" height="62" rx="4" ry="4" style="stroke:#888888;stroke-width:0.5;" width="171.7305" x="131.13" y="42"/><text fill="#222222" font-family="Helvetica" font-size="14" font-style="italic" lengthAdjust="spacing" textLength="65.3789" x="184.3058" y="62.7803">&#171;external&#187;</text><text fill="#222222" font-family="Helvetica" font-size="14" lengthAdjust="spacing" textLength="86.3721" x="141.13" y="76.7803">AWS Lambda</text><text fill="#222222" font-family="Helvetica" font-size="14" lengthAdjust="spacing" textLength="151.7305" x="141.13" y="90.7803">lando-alexa-smart-home</text></g><!--entity gw--><g class="entity" data-qualified-name="gw" data-source-line="21" id="ent0002"><rect fill="#EEEEEE" height="48" rx="4" ry="4" style="stroke:#888888;stroke-width:0.5;" width="153.8477" x="1584.08" y="1031"/><text fill="#222222" font-family="Helvetica" font-size="14" font-style="italic" lengthAdjust="spacing" textLength="65.3789" x="1628.3144" y="1051.7803">&#171;external&#187;</text><text fill="#222222" font-family="Helvetica" font-size="14" lengthAdjust="spacing" textLength="133.8477" x="1594.08" y="1065.7803">Alexa Event Gateway</text></g><!--entity ha--><g class="entity" data-qualified-name="ha" data-source-line="22" id="ent0003"><rect fill="#EEEEEE" height="62" rx="4" ry="4" style="stroke:#888888;stroke-width:0.5;" width="118.0342" x="1772.98" y="1024"/><text fill="#222222" font-family="Helvetica" font-size="14" font-style="italic" lengthAdjust="spacing" textLength="65.3789" x="1799.3076" y="1044.7803">&#171;external&#187;</text><text fill="#222222" font-family="Helvetica" font-size="14" lengthAdjust="spacing" textLength="98.0342" x="1782.98" y="1058.7803">Home Assistant</text><text fill="#222222" font-family="Helvetica" font-size="14" lengthAdjust="spacing" textLength="85.1689" x="1782.98" y="1072.7803">(REST + WS)</text></g><!--entity kv--><g class="entity" data-qualified-name="kv" data-source-line="23" id="ent0004"><rect fill="#EEEEEE" height="48" rx="4" ry="4" style="stroke:#888888;stroke-width:0.5;" width="120.3857" x="209.81" y="1300"/><text fill="#222222" font-family="Helvetica" font-size="14" font-style="italic" lengthAdjust="spacing" textLength="65.3789" x="237.3134" y="1320.7803">&#171;external&#187;</text><text fill="#222222" font-family="Helvetica" font-size="14" lengthAdjust="spacing" textLength="100.3857" x="219.81" y="1334.7803">Azure Key Vault</text></g><!--link lambda to trigger--><g class="link" data-entity-1="ent0001" data-entity-2="ent0006" data-link-type="dependency" data-source-line="48" id="lnk21"><path d="M217,104.24 C217,134.41 217,175.51 217,205.7" fill="none" id="lambda-to-trigger" style="stroke:#555555;stroke-width:1;"/><polygon fill="#555555" points="217,210.7,221,201.7,217,205.7,213,201.7,217,210.7" style="stroke:#555555;stroke-width:1;stroke-linejoin:miter;stroke-miterlimit:10;"/><text fill="#000000" font-family="Helvetica" font-size="13" lengthAdjust="spacing" textLength="163.2871" x="218" y="145.0103">POST /api/alexa/smarthome</text><text fill="#000000" font-family="Helvetica" font-size="13" lengthAdjust="spacing" textLength="109.1289" x="245.0791" y="158.0103">X-Lando-Signature</text></g><!--link trigger to base--><g class="link" data-entity-1="ent0006" data-entity-2="ent0007" data-link-type="dependency" data-source-line="49" id="lnk22"><path d="M217,273.15 C217,290.5 217,307.89 217,328.55" fill="none" id="trigger-to-base" style="stroke:#555555;stroke-width:1;"/><polygon fill="#555555" points="217,333.55,221,324.55,217,328.55,213,324.55,217,333.55" style="stroke:#555555;stroke-width:1;stroke-linejoin:miter;stroke-miterlimit:10;"/></g><!--link base to hmac--><g class="link" data-entity-1="ent0007" data-entity-2="ent0008" data-link-type="dependency" data-source-line="50" id="lnk23"><path d="M154.6,452.4 C147.12,461.7 140.28,471.68 135,482 C124.91,501.73 120.5208,521.0887 118.0408,540.9087" fill="none" id="base-to-hmac" style="stroke:#555555;stroke-width:1;"/><polygon fill="#555555" points="117.42,545.87,122.5065,537.4363,118.0408,540.9087,114.5684,536.443,117.42,545.87" style="stroke:#555555;stroke-width:1;stroke-linejoin:miter;stroke-miterlimit:10;"/><text fill="#000000" font-family="Helvetica" font-size="13" lengthAdjust="spacing" textLength="138.0298" x="136" y="493.0103">Validate(headers, body)</text></g><!--link base to smh--><g class="link" data-entity-1="ent0007" data-entity-2="ent0010" data-link-type="dependency" data-source-line="51" id="lnk24"><path d="M259.84,452.42 C266.48,462.15 273.09,472.25 279,482 C291.47,502.58 301.6489,521.9954 311.2089,541.3854" fill="none" id="base-to-smh" style="stroke:#555555;stroke-width:1;"/><polygon fill="#555555" points="313.42,545.87,313.0277,536.029,311.2089,541.3854,305.8525,539.5666,313.42,545.87" style="stroke:#555555;stroke-width:1;stroke-linejoin:miter;stroke-miterlimit:10;"/><text fill="#000000" font-family="Helvetica" font-size="13" lengthAdjust="spacing" textLength="128.6162" x="287.81" y="493.0103">HandleAsync(request)</text></g><!--link smh to dh--><g class="link" data-entity-1="ent0010" data-entity-2="ent0011" data-link-type="dependency" data-source-line="52" id="lnk25"><path d="M335.25,622.21 C337.84,644.97 340.5825,669.0123 343.1825,691.7723" fill="none" id="smh-to-dh" style="stroke:#555555;stroke-width:1;"/><polygon fill="#555555" points="343.75,696.74,346.7027,687.3442,343.1825,691.7723,338.7544,688.2521,343.75,696.74" style="stroke:#555555;stroke-width:1;stroke-linejoin:miter;stroke-miterlimit:10;"/><text fill="#000000" font-family="Helvetica" font-size="13" lengthAdjust="spacing" textLength="140.1816" x="341.01" y="663.0103">keyed by directive name</text></g><!--link dh to pt--><g class="link" data-entity-1="ent0011" data-entity-2="ent0012" data-link-type="dependency" data-source-line="53" id="lnk26"><path d="M292.21,773.25 C274.87,789.69 262.5,810.03 272,831 C280.75,850.32 292.8929,863.6725 309.0529,876.4925" fill="none" id="dh-to-pt" style="stroke:#555555;stroke-width:1;"/><polygon fill="#555555" points="312.97,879.6,308.4052,870.8729,309.0529,876.4925,303.4333,877.1402,312.97,879.6" style="stroke:#555555;stroke-width:1;stroke-linejoin:miter;stroke-miterlimit:10;"/><text fill="#000000" font-family="Helvetica" font-size="13" lengthAdjust="spacing" textLength="140.1816" x="273" y="814.0103">keyed by directive name</text><text fill="#000000" font-family="Helvetica" font-size="13" lengthAdjust="spacing" textLength="83.0845" x="301.5486" y="827.0103">(Control* only)</text></g><!--link dh to et--><g class="link" data-entity-1="ent0011" data-entity-2="ent0013" data-link-type="dependency" data-source-line="54" id="lnk27"><path d="M405.7,773.33 C433.44,791.08 467.27,812.42 498,831 C520.91,844.85 541.9043,857.1196 564.4843,870.0896" fill="none" id="dh-to-et" style="stroke:#555555;stroke-width:1;"/><polygon fill="#555555" points="568.82,872.58,563.0082,864.6287,564.4843,870.0896,559.0235,871.5658,568.82,872.58" style="stroke:#555555;stroke-width:1;stroke-linejoin:miter;stroke-miterlimit:10;"/><text fill="#000000" font-family="Helvetica" font-size="13" lengthAdjust="spacing" textLength="220.3779" x="499" y="820.5103">DiscoveryEndpoint / ContextProperty[]</text></g><!--link dh to hac--><g class="link" data-entity-1="ent0011" data-entity-2="ent0018" data-link-type="dependency" data-source-line="55" id="lnk28"><path d="M456.64,745.78 C635.06,762.05 973.02,793.78 998,803 C1044.48,820.15 1086.4204,851.2316 1116.0304,876.4016" fill="none" id="dh-to-hac" style="stroke:#555555;stroke-width:1;"/><polygon fill="#555555" points="1119.84,879.64,1115.5734,870.7633,1116.0304,876.4016,1110.392,876.8586,1119.84,879.64" style="stroke:#555555;stroke-width:1;stroke-linejoin:miter;stroke-miterlimit:10;"/><text fill="#000000" font-family="Helvetica" font-size="13" lengthAdjust="spacing" textLength="132.2344" x="1054.16" y="820.5103">call_service / get_state</text></g><!--link dh to ts--><g class="link" data-entity-1="ent0011" data-entity-2="ent0020" data-link-type="dependency" data-source-line="56" id="lnk29"><path d="M286.67,773.47 C265.78,790.36 245.74,812.51 238,839 C204.36,954.15 239.2865,1093.9321 258.3765,1155.8321" fill="none" id="dh-to-ts" style="stroke:#555555;stroke-width:1;"/><polygon fill="#555555" points="259.85,1160.61,261.02,1150.8309,258.3765,1155.8321,253.3753,1153.1885,259.85,1160.61" style="stroke:#555555;stroke-width:1;stroke-linejoin:miter;stroke-miterlimit:10;"/><text fill="#000000" font-family="Helvetica" font-size="13" lengthAdjust="spacing" textLength="122.8271" x="227.3" y="990.0103">tokens (AcceptGrant)</text></g><!--link hac to ha--><g class="link" data-entity-1="ent0018" data-entity-2="ent0003" data-link-type="dependency" data-source-line="57" id="lnk30"><path d="M1216.63,942.43 C1239,951.73 1264.64,960.85 1289,966 C1435.21,996.91 1479.79,943.69 1625,979 C1640.26,982.71 1642.34,988.35 1657,994 C1699.51,1010.37 1711.97,1009.05 1755,1024 C1760.83,1026.02 1762.1864,1026.4595 1768.2064,1028.7095" fill="none" id="hac-to-ha" style="stroke:#555555;stroke-width:1;"/><polygon fill="#555555" points="1772.89,1030.46,1765.86,1023.5622,1768.2064,1028.7095,1763.0592,1031.0559,1772.89,1030.46" style="stroke:#555555;stroke-width:1;stroke-linejoin:miter;stroke-miterlimit:10;"/><text fill="#000000" font-family="Helvetica" font-size="13" lengthAdjust="spacing" textLength="126.4199" x="1658" y="990.0103">HTTPS over Tailscale</text></g><!--link haws to ha--><g class="link" data-entity-1="ent0019" data-entity-2="ent0003" data-link-type="dependency" data-source-line="58" id="lnk31"><path d="M1527.99,920.94 C1623.32,930.54 1751.73,948.67 1793,979 C1807.78,989.86 1815.6471,1003.3287 1821.6471,1019.0487" fill="none" id="haws-to-ha" style="stroke:#555555;stroke-width:1;"/><polygon fill="#555555" points="1823.43,1023.72,1823.9578,1013.8853,1821.6471,1019.0487,1816.4837,1016.738,1823.43,1023.72" style="stroke:#555555;stroke-width:1;stroke-linejoin:miter;stroke-miterlimit:10;"/><text fill="#000000" font-family="Helvetica" font-size="13" lengthAdjust="spacing" textLength="104.749" x="1808.33" y="990.0103">WS over Tailscale</text></g><!--link crs to haws--><g class="link" data-entity-1="ent0014" data-entity-2="ent0019" data-link-type="dependency" data-source-line="59" id="lnk32"><path d="M933.36,742.39 C1010.47,750.4 1129.96,767.63 1228,803 C1280.85,822.06 1332.0225,852.4326 1369.0625,876.7926" fill="none" id="crs-to-haws" style="stroke:#555555;stroke-width:1;"/><polygon fill="#555555" points="1373.24,879.54,1367.9184,871.2526,1369.0625,876.7926,1363.5225,877.9367,1373.24,879.54" style="stroke:#555555;stroke-width:1;stroke-linejoin:miter;stroke-miterlimit:10;"/><text fill="#000000" font-family="Helvetica" font-size="13" lengthAdjust="spacing" textLength="55.6372" x="1288.88" y="820.5103">subscribe</text></g><!--link crs to et--><g class="link" data-entity-1="ent0014" data-entity-2="ent0013" data-link-type="dependency" data-source-line="60" id="lnk33"><path d="M799.08,773.37 C785.77,782.79 771.72,793.06 759,803 C730.65,825.14 703.7806,848.2122 680.0706,869.2422" fill="none" id="crs-to-et" style="stroke:#555555;stroke-width:1;"/><polygon fill="#555555" points="676.33,872.56,685.7173,869.5804,680.0706,869.2422,680.4089,863.5955,676.33,872.56" style="stroke:#555555;stroke-width:1;stroke-linejoin:miter;stroke-miterlimit:10;"/><text fill="#000000" font-family="Helvetica" font-size="13" lengthAdjust="spacing" textLength="93.2153" x="760" y="820.5103">recompute state</text></g><!--link crs to egc--><g class="link" data-entity-1="ent0014" data-entity-2="ent0015" data-link-type="dependency" data-source-line="61" id="lnk34"><path d="M858.29,773.33 C862.24,807.68 867.3987,852.6027 870.7387,881.6427" fill="none" id="crs-to-egc" style="stroke:#555555;stroke-width:1;"/><polygon fill="#555555" points="871.31,886.61,874.2555,877.2119,870.7387,881.6427,866.3079,878.126,871.31,886.61" style="stroke:#555555;stroke-width:1;stroke-linejoin:miter;stroke-miterlimit:10;"/><text fill="#000000" font-family="Helvetica" font-size="13" lengthAdjust="spacing" textLength="123.5635" x="865.6" y="820.5103">POST ChangeReport</text></g><!--link egc to gw--><g class="link" data-entity-1="ent0015" data-entity-2="ent0002" data-link-type="dependency" data-source-line="62" id="lnk35"><path d="M928.18,935.42 C955.05,946.19 988.26,958.27 1019,966 C1219.21,1016.35 1457.2743,1039.3524 1578.8743,1048.5624" fill="none" id="egc-to-gw" style="stroke:#555555;stroke-width:1;"/><polygon fill="#555555" points="1583.86,1048.94,1575.1878,1044.2717,1578.8743,1048.5624,1574.5836,1052.2489,1583.86,1048.94" style="stroke:#555555;stroke-width:1;stroke-linejoin:miter;stroke-miterlimit:10;"/></g><!--link egc to lwa--><g class="link" data-entity-1="ent0015" data-entity-2="ent0016" data-link-type="dependency" data-source-line="63" id="lnk36"><path d="M839.7,935.28 C823.12,945.76 802.6,957.63 783,966 C697.37,1002.57 597.1097,1027.2757 532.3097,1041.1157" fill="none" id="egc-to-lwa" style="stroke:#555555;stroke-width:1;"/><polygon fill="#555555" points="527.42,1042.16,537.057,1044.1919,532.3097,1041.1157,535.386,1036.3684,527.42,1042.16" style="stroke:#555555;stroke-width:1;stroke-linejoin:miter;stroke-miterlimit:10;"/><text fill="#000000" font-family="Helvetica" font-size="13" lengthAdjust="spacing" textLength="119.9453" x="751.02" y="990.0103">refresh access token</text></g><!--link lwa to ts--><g class="link" data-entity-1="ent0016" data-entity-2="ent0020" data-link-type="dependency" data-source-line="64" id="lnk37"><path d="M435.65,1079.5 C425.32,1087.1 413.74,1095.51 403,1103 C374.84,1122.64 346.9477,1141.1682 321.3477,1157.8682" fill="none" id="lwa-to-ts" style="stroke:#555555;stroke-width:1;"/><polygon fill="#555555" points="317.16,1160.6,326.8834,1159.0329,321.3477,1157.8682,322.5124,1152.3325,317.16,1160.6" style="stroke:#555555;stroke-width:1;stroke-linejoin:miter;stroke-miterlimit:10;"/><text fill="#000000" font-family="Helvetica" font-size="13" lengthAdjust="spacing" textLength="104.0635" x="382.51" y="1127.0103">load refresh token</text></g><!--link ts to kv--><g class="link" data-entity-1="ent0020" data-entity-2="ent0004" data-link-type="dependency" data-source-line="65" id="lnk38"><path d="M270,1223.48 C270,1246.74 270,1273.32 270,1294.61" fill="none" id="ts-to-kv" style="stroke:#555555;stroke-width:1;"/><polygon fill="#555555" points="270,1299.61,274,1290.61,270,1294.61,266,1290.61,270,1299.61" style="stroke:#555555;stroke-width:1;stroke-linejoin:miter;stroke-miterlimit:10;"/><text fill="#000000" font-family="Helvetica" font-size="13" lengthAdjust="spacing" textLength="78.0381" x="271" y="1266.0103">get/set secret</text></g><?plantuml-src VLPTRkCs47xNAGQR5wU9us0tQGqZ2E0uIXnqqGQnaHI85m5DZIN24gcIjBtUOe4UeXVf5NgKdgH3wiToR9SFHiJvvfl_OQomAS9d9YC5__xv5moKj4n8rD0IqeW8mIO8_MyBZN2taDmA9Q6VvyT1OEP2vaop32ASiKLgxqZt5vOX335TeXMSDJ0cOP5Q2Hd3ZAK66nAj5Z8QAEsCTXltVQtLQg1IfU7eqf-cJOtSCXcJyty403UCp-EIY1IkhZ2AyVeQt3cw7OJXNTUXb8vGxo8ywcFO_R5_iu-BArrpXTsxy_3yFLS3uL6NDzt1ft0Vbv0ppGheqTr5U75xyPwhWV2ec_EV-fzkzyRurQAMB2NmKUZFJemRXEVg-aCeLweYjRldwAC_mVSWs2JvG_zbH6sIJICsaQbhbpPByIjhcunfsqvKXX-06KWz19gcjrYS3eHBb1RkcSKLMtkrU7LGPKZKq3T66Bgn4zbw2aTZE86NqR5NJVx7cc_Rdt4Dpwu_FNo-t8O7EQMLnJMwsUJGyeDnLjsvll_W-wrXf1AQZW-k-1svh3ZFoT_XUFm8LeiuHbsuN7v0rOJx2M-OmQln4_v-IZyclvv8Dw3JnMn6gbCLhOiB8PTgZh1agOYOLRguZT2W5dJt3RTW2GMKOWcg8T3I635kOOISaZ0Y1sLS-3ebBmuuEimO7ubOCaiwpyGr4uwvzK0-Bz3Ovygbuudab21NlxOL6Px2FtzVPaA2cUEgA29HGJL70Pcfgr9Km2VrhCvgKOGjPshPi8gmzgEy8IzGBZ5LELBxHCBapFB4cpTPih7-ZlXMk0-nh8YlJgaIFYidaADkHvKSp6BAKsOCceby7IIqHa7DmDMEWXTJaGgx_kBjHOVDFJooTQfODDPCcfdIsTMul26phrGPcffuVUfCGsswOCtjOTPGMhBU8Drb6_OXKXbv_MKYRuNXQebw7SeeLuAczSG_3JGuZveIgEtwjJ2AXurI2cICJvWhRKUebuAxSNWOAcCnAY-eABHOA7E6Qp4bBrnbPZDFpRKvoErNIBb11gcWZyARc1zK-RnYOne1sO2dAzQ4Vz_JUQwbwkrpHi_KlkRR0XNyvQBgmNqu1hgt21ru_9LMboaZBxVNOOUtM5zmEb9yZXlwbr5laxZ2n1ltAOygxfNP2Q_1xxCnelbqPQctP7jA2S087ZRYScivil9rSez3kUhRxUjweVMA23ii5nt_F7Jyyv3uHVXRssUqNQ-Ce59p56wY0ZzMxillWnwK6mHR2J9wrSofttl76vmRt1uKazatQybfaVcPFmwSo44YXvZZcaAQhZSZ0vB-KmcY0aEJSn13kN6ThrNw0oYPalLI2PtIxg1qTWUbqaXyK9obwLlP18IEqRxvubKeodCFh4k-WLQVSypjFSqjXUJq2nuND3qh8t2sOSn4QeWM0r_o6lAo8tSZLOXNpahTFhN01qNXgonVsBAhDiAOLoLkpdRWxfqyNjL_kiboH3ED9W56KHXJ11KuKHsdMsmrh93RmXWzr3sNd8uXdmnoZJRu3m00?></g></svg>